<?xml version="1.0" encoding="utf-8"?>
<!-- Generator: Adobe Illustrator 16.0.0, SVG Export Plug-In . SVG Version: 6.00 Build 0)  -->
<!DOCTYPE svg PUBLIC "-//W3C//DTD SVG 1.1//EN" "http://www.w3.org/Graphics/SVG/1.1/DTD/svg11.dtd">
<svg xmlns="http://www.w3.org/2000/svg" xmlns:xlink="http://www.w3.org/1999/xlink" version="1.1" id="Night_x5F_Time" x="0px" y="0px" width="512" height="512" viewBox="0 0 144.083 144" enable-background="new 0 0 144.083 144" xml:space="preserve">
<polygon points="73.862,113.804 28.905,113.804 63.294,75.37 94.413,110.146 104.979,98.337 123.295,118.806 127.766,114.806   104.979,89.339 94.413,101.147 63.294,66.372 15.485,119.804 73.862,119.804 "/>
<path d="M56.149,58.535c5.906,0,11.429-2.336,15.552-6.577c0.882-0.907,1.101-2.271,0.544-3.409s-1.772-1.81-3.025-1.663  c-0.569,0.063-1.145,0.095-1.709,0.095c-8.651,0-15.69-7.039-15.69-15.691c0-4.103,1.577-7.985,4.441-10.933  c0.882-0.907,1.1-2.27,0.545-3.406c-0.555-1.136-1.767-1.8-3.02-1.667c-11.019,1.195-19.328,10.464-19.328,21.561  C34.458,48.804,44.189,58.535,56.149,58.535z M47.06,24.037c-0.815,2.302-1.24,4.747-1.24,7.252c0,9.573,6.233,17.717,14.854,20.588  c-1.448,0.434-2.968,0.658-4.524,0.658c-8.651,0-15.69-7.039-15.69-15.691C40.458,31.583,43.039,26.89,47.06,24.037z"/>
<rect x="87.94" y="27.268" width="6" height="7.262"/>
<rect x="114.19" y="35.985" width="6" height="7.262"/>
<rect x="96.69" y="53.867" width="6" height="7.262"/>
<rect x="100.989" y="122.734" width="14.223" height="6"/>
<rect x="120.407" y="122.584" width="8.191" height="6"/>
<rect x="16.489" y="122.734" width="79.055" height="6"/>
</svg>
