<?xml version="1.0" encoding="utf-8"?>
<!-- Generator: Adobe Illustrator 16.0.0, SVG Export Plug-In . SVG Version: 6.00 Build 0)  -->
<!DOCTYPE svg PUBLIC "-//W3C//DTD SVG 1.1//EN" "http://www.w3.org/Graphics/SVG/1.1/DTD/svg11.dtd">
<svg xmlns="http://www.w3.org/2000/svg" xmlns:xlink="http://www.w3.org/1999/xlink" version="1.1" id="Wave" x="0px" y="0px" width="512" height="512" viewBox="0 0 144.083 144" enable-background="new 0 0 144.083 144" xml:space="preserve">
<path d="M115.475,84.007c-0.801,0.705-1.518,1.336-2.279,1.851c-0.205-0.095-0.42-0.173-0.65-0.22  c-5.881-1.203-10.594-2.598-14.371-4.084c-1.15-0.751-2.486-1.41-4.105-1.828c-6.404-3.235-9.094-6.711-10.115-9.544  c-0.469-1.3-0.615-2.58-0.574-3.794c2.408,4.505,6.902,8.305,14.705,8.305c10.273,0,15.646-8.375,15.646-16.648  c0-6.512,0-23.809-22.809-23.809c-14.955,0-25.96,6.759-42.054,25.827c-2.933,3.476-5.337,6.873-7.457,9.871  c-5.619,7.943-8.888,12.146-14.942,12.296c-2.094-1.575-4.798-2.971-8.928-2.971v6c3.409,0,4.957,1.364,7.101,3.251  c2.401,2.116,5.391,4.749,11.064,4.749c5.673,0,8.662-2.633,11.063-4.749c2.142-1.888,3.689-3.251,7.097-3.251  c3.409,0,4.958,1.364,7.102,3.252c2.401,2.115,5.392,4.748,11.065,4.748c5.676,0,8.664-2.633,11.066-4.749  c2.145-1.887,3.693-3.251,7.102-3.251c0.75,0,1.396,0.076,1.992,0.199c0.967,0.466,1.975,0.916,3.035,1.351  c0.686,0.487,1.348,1.062,2.076,1.702c2.402,2.115,5.393,4.748,11.066,4.748c5.676,0,8.666-2.633,11.068-4.748  c2.143-1.888,3.691-3.252,7.102-3.252v-6C120.868,79.259,117.877,81.892,115.475,84.007z M79.135,84.008  c-2.143,1.887-3.691,3.251-7.102,3.251c-3.408,0-4.957-1.363-7.101-3.251c-2.401-2.116-5.392-4.749-11.066-4.749  c-5.673,0-8.662,2.633-11.063,4.749c-2.142,1.888-3.689,3.251-7.097,3.251c-1.077,0-1.955-0.148-2.738-0.395  c5.492-2.393,9.215-7.631,13.341-13.466c2.052-2.899,4.377-6.187,7.146-9.467C68.22,46.437,78.026,40.235,90.922,40.235  c15.512,0,16.809,8.798,16.809,17.809c0,5.301-2.982,10.648-9.646,10.648c-10.58,0-11.117-10.096-11.117-12.119  c0-0.05-0.012-0.096-0.014-0.146c-0.006-0.104-0.016-0.206-0.031-0.309c-0.016-0.096-0.033-0.19-0.057-0.282  c-0.023-0.094-0.053-0.184-0.084-0.274c-0.035-0.093-0.07-0.185-0.113-0.272c-0.039-0.086-0.086-0.168-0.135-0.249  c-0.051-0.087-0.105-0.17-0.164-0.25c-0.055-0.073-0.113-0.144-0.176-0.213c-0.072-0.08-0.146-0.155-0.227-0.228  c-0.035-0.031-0.063-0.068-0.098-0.098c-0.035-0.027-0.072-0.045-0.107-0.071c-0.088-0.065-0.178-0.124-0.271-0.18  c-0.08-0.048-0.158-0.093-0.242-0.132c-0.09-0.042-0.182-0.078-0.275-0.111s-0.188-0.064-0.283-0.088  c-0.09-0.022-0.18-0.038-0.271-0.053c-0.107-0.016-0.213-0.027-0.32-0.031c-0.045-0.002-0.086-0.014-0.131-0.014  c-0.047,0-0.092,0.012-0.139,0.014c-0.107,0.006-0.211,0.016-0.316,0.032c-0.094,0.015-0.186,0.031-0.277,0.055  c-0.094,0.023-0.186,0.054-0.279,0.087c-0.092,0.033-0.182,0.068-0.268,0.109c-0.088,0.041-0.17,0.088-0.254,0.138  c-0.086,0.051-0.168,0.104-0.246,0.162c-0.074,0.056-0.146,0.115-0.215,0.178c-0.08,0.072-0.156,0.147-0.229,0.227  c-0.031,0.035-0.066,0.062-0.098,0.098c-0.271,0.332-6.639,8.253-3.365,17.471c1.086,3.058,3.105,5.821,5.998,8.297  C82.104,81.399,80.52,82.788,79.135,84.008z"/>
<path d="M108.372,103.765c-3.41,0-4.959-1.364-7.102-3.252c-2.402-2.115-5.393-4.748-11.068-4.748  c-5.674,0-8.664,2.633-11.066,4.749c-2.143,1.887-3.691,3.251-7.102,3.251c-3.408,0-4.957-1.363-7.101-3.251  c-2.401-2.116-5.392-4.749-11.066-4.749c-5.673,0-8.662,2.633-11.063,4.749c-2.142,1.888-3.689,3.251-7.097,3.251  c-3.408,0-4.956-1.363-7.099-3.251c-2.402-2.116-5.392-4.749-11.066-4.749v6c3.409,0,4.957,1.364,7.101,3.251  c2.401,2.116,5.391,4.749,11.064,4.749c5.673,0,8.662-2.633,11.063-4.749c2.142-1.888,3.689-3.251,7.097-3.251  c3.409,0,4.958,1.364,7.102,3.252c2.401,2.115,5.392,4.748,11.065,4.748c5.676,0,8.664-2.633,11.066-4.749  c2.145-1.887,3.693-3.251,7.102-3.251c3.41,0,4.959,1.364,7.104,3.252c2.402,2.115,5.393,4.748,11.066,4.748  c5.676,0,8.666-2.633,11.068-4.748c2.143-1.888,3.691-3.252,7.102-3.252v-6c-5.674,0-8.664,2.633-11.066,4.748  C113.331,102.4,111.782,103.765,108.372,103.765z"/>
</svg>
